# xmcd
# Track frame offsets:
# 150
# 14930
# 26025
# 41073
# 57200
# 73220
# 88798
# 103430
# 114488
# 130073
#
# Disc length: 1927 seconds
# Revision: 2
# Processed by: cddbd v1.4PL0 Copyright (c) Steve Scherf et al.
# Submitted via: VisiTrax 2.9.5.181 - For more info visit www.synapsa.com
#
DISCID=9607850a
DTITLE=Jones, George - And Along Came Jones
DYEAR=1991
DGENRE=
TTITLE0=Where The Tall Grass Grows
TTITLE1=Honky Tonk Myself To Death
TTITLE2=Angels Don't Fly
TTITLE3=You Couldn't Get The Picture
TTITLE4=Come Home To Me
TTITLE5=Heckel And Jeckel
TTITLE6=I Don't Go Back Anymore
TTITLE7=You Done Me Wrong
TTITLE8=King Of The Mountain
TTITLE9=She Loved A Lot In Her Time
EXTD=
EXTT0=
EXTT1=
EXTT2=
EXTT3=
EXTT4=
EXTT5=
EXTT6=
EXTT7=
EXTT8=
EXTT9=
PLAYORDER=
